<svg xmlns="http://www.w3.org/2000/svg" xmlns:xlink="http://www.w3.org/1999/xlink" viewBox="0 0 109 151" fill="#fff" fill-rule="evenodd" stroke="#000" stroke-linecap="round" stroke-linejoin="round"><style><![CDATA[.B{stroke:none}.C{fill:#fdcc9b}.D{text-anchor:start}.E{font-weight:bold}]]></style><use xlink:href="#A" x=".5" y=".5"/><symbol id="A" overflow="visible"><g class="B"><path d="M53.976 150H0c0-11.329 28.431-27.989 53.976-27.989s53.976 16.66 53.976 27.989z" fill="#c1c1c1"/><path d="M53.976 122.011c-5.433 0-10.997.759-16.39 2.055.036.048 5.982 7.719 16.39 7.719 9.638 0 16.045-6.569 16.974-7.58-5.575-1.384-11.344-2.195-16.974-2.195z" fill="#838383"/><path d="M92.952 67.5q9.5 0 9.5 9-1.5 13-13 12 0-21 3.5-21z" class="C"/></g><path d="M13.952 67.5q-9.5 0-9.5 9 1.5 13 13 12 0-21-3.5-21z" class="B C"/><g class="B"><path d="M97.07 49.818c0-18.214-13.328-31.543-43.094-31.543S10.883 31.603 10.883 49.818s-3.11 66.196 43.094 66.196S97.07 68.033 97.07 49.818z" class="C"/><path d="M25.524 57.815c2.206 1.103 5.748-3.748 13.855.472 1.478.769 2.36-6.58-6.33-6.58-7.525 0-8.858 5.442-7.525 6.108zm56.904 0c-2.206 1.103-5.748-3.748-13.855.472-1.478.769-2.36-6.58 6.331-6.58 7.524 0 8.857 5.442 7.524 6.108z" fill="#262626"/><path d="M52.827 88.875c-4.61 0-6.237-4.871-6.237-3.205s1.333 4.832 7.386 4.832 7.386-3.165 7.386-4.832-3.285 4.705-7.285 2.58z" fill="#fcbc85"/><path d="M28.821 70.476c0-2.831 1.478-5.109 3.315-5.109s3.315 2.279 3.315 5.109-1.479 5.109-3.315 5.109-3.315-2.279-3.315-5.109zm43.5-.585c0-2.831 1.478-5.109 3.315-5.109s3.315 2.279 3.315 5.109S77.473 75 75.636 75s-3.315-2.279-3.315-5.109z" fill="#000"/><g fill="#646464"><circle cx="31.39" cy="68.938" r="1.438"/><circle cx="74.64" cy="68.688" r="1.438"/></g><path d="M53.462 104.63c-2.425 0-3.282-1.109-3.282-.73s.701 1.1 3.886 1.1 3.886-.721 3.886-1.1-1.728 1.071-3.833.587z" fill="#fcbc85"/><path d="M42.452 114v9.25q12 10 22.75-.25v-8.5z" class="C"/></g><g class="B"><path d="M64.77 99.086a.84.84 0 0 0-.697-.019A25.76 25.76 0 0 1 54.521 101c-5.233 0-9.51-1.914-9.552-1.933-.21-.095-.502-.087-.697.019s-.239.283-.103.419C44.31 99.648 47.7 103 54.521 103s10.212-3.352 10.353-3.496c.135-.137.092-.312-.103-.419" fill="#f7945e"/><path d="M100.113 41.68c2.389 2.833 1.732 4.796.329 6.162-.118 7.618-1.266 13.012-4.363 30.741-.547 1.976-1.093 2.964-2.734 1.976 0-1.976 1.094-10.87 1.093-12.846.303-3.975.186-7.455-.329-10.494-1.341-7.916-5.378-12.836-11.699-15.692-4.374 2.964-19.135 6.917-44.284 3.953-9.232-1.854-20.87-.229-23.178 11.809-.152.794-.264 1.633-.331 2.519-.547 2.964 0 17.787 0 19.763s-2.187 2.47-2.734 1.482c-2.74-13.087-3.238-24.656-3.5-32.348-2.09-1.417-3.836-3.715-.351-7.474.147-.159.303-.32.469-.483a12.1 12.1 0 0 1-.526-.453c-2.738-2.5-4.412-6.408 1.282-9.383-1.891-1.757-3.026-8.431 4.16-9.133C9.635 13.7 19.091 4.215 28.924 9.485c.378-5.621 6.429-7.026 10.59-3.864.14-.554.32-1.057.532-1.511-.066-.256.031-.472.337-.634 2.255-3.753 7.061-3.291 9.342.037C50.482 1.405 51.805 0 53.885 0s3.381 1.405 4.137 3.513C60.67-.351 66.721-.351 68.234 5.62c4.16-3.161 10.212-1.756 10.59 3.864 9.126-4.89 17.927 2.928 16.122 10.536.534.645 1.008 1.375 1.431 2.181 4.488 1.528 3.938 6.277 2.511 8.254l.124.743c4.924 2.854 3.499 6.468.98 8.891l.12 1.589z" fill="#262626"/></g></symbol></svg>